<svg xmlns="http://www.w3.org/2000/svg" version="1.1" xmlns:xlink="http://www.w3.org/1999/xlink" xmlns:svgjs="http://svgjs.dev/svgjs" width="2000" height="1952" viewBox="0 0 2000 1952"><g transform="matrix(1,0,0,1,-0.6557624218196452,0.7917427537831827)"><svg viewBox="0 0 253 247" data-background-color="#ffffff" preserveAspectRatio="xMidYMid meet" height="1952" width="2000" xmlns="http://www.w3.org/2000/svg" xmlns:xlink="http://www.w3.org/1999/xlink"><g id="tight-bounds" transform="matrix(1,0,0,1,0.08295394636019182,-0.099973655792013)"><svg viewBox="0 0 252.83409210727964 247.2" height="247.2" width="252.83409210727964"><g><svg viewBox="0 0 252.83409210727967 247.20000000000002" height="247.2" width="252.83409210727964"><g><svg viewBox="0 0 252.83409210727967 247.20000000000002" height="247.20000000000002" width="252.83409210727967"><g id="textblocktransform"><svg viewBox="0 0 252.83409210727967 247.20000000000002" height="247.20000000000002" width="252.83409210727967" id="textblock"><g><svg viewBox="0 0 252.83409210727967 247.20000000000002" height="247.20000000000002" width="252.83409210727967"><path d="M252.242 53.02C251.054 27.36 247.666 20.227 247.666 20.227 237.265-6.202 224.286-0.506 212.625 3.292 192.038 3.446 171.534 9.091 150.995 12.119 107.883 12.581 64.403 4.986 21.506 23.717 17.476 29.464-4.18 24.846 0.717 56.304 2 69.39 6.684 83.913 6.541 95.922 7.183 98.026 8.074 93.202 8.455 96.23 9.786 104.39 11.961 100.541 13.744 105.365 11.26 118.246 13.043 128.971 14.743 140.21 11.747 143.135 7.908 141.749 6.184 151.449 6.006 158.479 5.043 157.145 3.985 156.837 3.213 156.632 1.656 157.402 1.917 159.608 2.809 167.152-1.019 171.514 1.382 178.904-0.27 186.91 2.523 193.838 2.143 202.511 2.096 204.255 2.357 205.744 2.773 206.154 4.615 208.361 1.929 212.672 2.214 217.342 21.114 249.262 41.617 227.195 60.98 241.872 66.008 231.608 62.228 245.516 64.237 243.36 65.806 240.846 66.947 251.263 68.718 245.362 68.991 243.668 68.575 239.665 69.55 240.435 70.061 240.846 70.513 240.743 70.584 238.382 70.691 234.841 69.752 237.048 69.503 235.201 72.201 225.861 71.535 248.081 74.067 247.158 73.948 244.438 73.211 240.538 74.721 241.051 76.218 237.151 76.266 233.918 77.597 242.693 77.645 244.592 77.882 245.926 78.263 246.85 82.423 237.305 86.559 250.237 90.922 245.926 93.596 241.205 96.164 248.492 98.874 246.696 99.824 245.259 100.787 242.693 101.703 247.004 112.911 247.928 124.857 244.079 135.483 247.158 163.88 241.41 194.225 249.518 224.167 241.923 231.227 238.998 238.561 234.841 245.443 231.506 245.443 231.506 251.018 222.371 251.018 181.316S252.206 145.393 252.385 112.703C252.563 80.013 253.395 78.679 252.206 53.02Z" opacity="1" fill="#8a60f6" data-fill-palette-color="tertiary"></path><g transform="matrix(1,0,0,1,55.76832,26.230666666666668)"><svg width="141.29745210727967" viewBox="6.25 -34.8 25.25 34.8" height="194.7386666666667" data-palette-color="#ffffff"><path d="M31.5 0L26.2 0 19.15-13.65 18.65-13.65 10.65-13.65 10.65 0 6.25 0 6.25-34.8 18.05-34.8Q24.3-34.8 27.35-32.18 30.4-29.55 30.4-24.5L30.4-24.5Q30.4-20.75 28.75-18.15 27.1-15.55 23.9-14.45L23.9-14.45 31.5 0ZM18.1-17.8Q22-17.8 23.83-19.33 25.65-20.85 25.65-24.5L25.65-24.5Q25.65-27.85 23.83-29.23 22-30.6 18.05-30.6L18.05-30.6 10.65-30.6 10.65-17.8 18.1-17.8Z" opacity="1" transform="matrix(1,0,0,1,0,0)" fill="#ffffff" class="wordmark-text-0" data-fill-palette-color="quaternary" id="text-0"></path></svg></g></svg></g></svg></g></svg></g><g></g></svg></g><defs></defs></svg><rect width="252.83409210727964" height="247.2" fill="none" stroke="none" visibility="hidden"></rect></g></svg></g></svg>